<svg width="92" height="15" viewBox="0 0 92 15" fill="none" xmlns="http://www.w3.org/2000/svg">
<path opacity="0.6" d="M10.94 4.98C10.94 5.79333 10.7533 6.54 10.38 7.22C10.0067 7.88667 9.43333 8.42667 8.66 8.84C7.88667 9.25333 6.92667 9.46 5.78 9.46H3.66V14.5H0.24V0.46H5.78C6.9 0.46 7.84667 0.653333 8.62 1.04C9.39333 1.42667 9.97333 1.96 10.36 2.64C10.7467 3.32 10.94 4.1 10.94 4.98ZM5.52 6.74C6.17333 6.74 6.66 6.58667 6.98 6.28C7.3 5.97333 7.46 5.54 7.46 4.98C7.46 4.42 7.3 3.98667 6.98 3.68C6.66 3.37333 6.17333 3.22 5.52 3.22H3.66V6.74H5.52ZM14.3205 14.66C13.7205 14.66 13.2271 14.4867 12.8405 14.14C12.4671 13.78 12.2805 13.34 12.2805 12.82C12.2805 12.2867 12.4671 11.84 12.8405 11.48C13.2271 11.12 13.7205 10.94 14.3205 10.94C14.9071 10.94 15.3871 11.12 15.7605 11.48C16.1471 11.84 16.3405 12.2867 16.3405 12.82C16.3405 13.34 16.1471 13.78 15.7605 14.14C15.3871 14.4867 14.9071 14.66 14.3205 14.66ZM27.105 12.02H21.865L21.025 14.5H17.445L22.525 0.46H26.485L31.565 14.5H27.945L27.105 12.02ZM26.225 9.38L24.485 4.24L22.765 9.38H26.225ZM34.7111 14.66C34.1111 14.66 33.6178 14.4867 33.2311 14.14C32.8578 13.78 32.6711 13.34 32.6711 12.82C32.6711 12.2867 32.8578 11.84 33.2311 11.48C33.6178 11.12 34.1111 10.94 34.7111 10.94C35.2978 10.94 35.7778 11.12 36.1511 11.48C36.5378 11.84 36.7311 12.2867 36.7311 12.82C36.7311 13.34 36.5378 13.78 36.1511 14.14C35.7778 14.4867 35.2978 14.66 34.7111 14.66ZM48.8556 0.46V3.2H45.1356V14.5H41.7156V3.2H37.9956V0.46H48.8556ZM53.932 0.46V8.86C53.932 9.7 54.1387 10.3467 54.552 10.8C54.9654 11.2533 55.572 11.48 56.372 11.48C57.172 11.48 57.7854 11.2533 58.212 10.8C58.6387 10.3467 58.852 9.7 58.852 8.86V0.46H62.272V8.84C62.272 10.0933 62.0054 11.1533 61.472 12.02C60.9387 12.8867 60.2187 13.54 59.312 13.98C58.4187 14.42 57.4187 14.64 56.312 14.64C55.2054 14.64 54.212 14.4267 53.332 14C52.4654 13.56 51.7787 12.9067 51.272 12.04C50.7654 11.16 50.512 10.0933 50.512 8.84V0.46H53.932ZM73.4136 12.02H68.1736L67.3336 14.5H63.7536L68.8336 0.46H72.7936L77.8736 14.5H74.2536L73.4136 12.02ZM72.5336 9.38L70.7936 4.24L69.0736 9.38H72.5336ZM91.9797 14.5H88.5597L82.8397 5.84V14.5H79.4197V0.46H82.8397L88.5597 9.16V0.46H91.9797V14.5Z" fill="black"/>
</svg>
